HIERARCHY
ROOT Hips
{
 OFFSET 0.000000 0.000000 0.000000
 CHANNELS 6 Xposition Yposition Zposition Yrotation Xrotation Zrotation
 JOINT Chest
 {
  OFFSET 0.000000 9.585900 0.002600
  CHANNELS 3 Yrotation Xrotation Zrotation
  JOINT Chest2
  {
   OFFSET 0.000000 9.601200 -0.005300
   CHANNELS 3 Yrotation Xrotation Zrotation
   JOINT Chest3
   {
    OFFSET 0.000000 9.561800 0.000000
    CHANNELS 3 Yrotation Xrotation Zrotation
    JOINT Chest4
    {
     OFFSET 0.000000 9.552100 0.000000
     CHANNELS 3 Yrotation Xrotation Zrotation
     JOINT Neck
     {
      OFFSET 0.000000 14.453000 0.000000
      CHANNELS 3 Yrotation Xrotation Zrotation
      JOINT Head
      {
       OFFSET 0.000000 8.936500 -0.011300
       CHANNELS 3 Yrotation Xrotation Zrotation
       End Site
       {
        OFFSET 0.000000 17.073600 -0.006000
       }
      }
     }
     JOINT RightCollar
     {
      OFFSET -2.921100 9.558500 0.000000
      CHANNELS 3 Yrotation Xrotation Zrotation
      JOINT RightShoulder
      {
       OFFSET -13.519700 0.000000 0.000000
       CHANNELS 3 Yrotation Xrotation Zrotation
       JOINT RightElbow
       {
        OFFSET 0.000000 -29.696600 0.000000
        CHANNELS 3 Yrotation Xrotation Zrotation
        JOINT RightWrist
        {
         OFFSET 0.000000 -24.004700 0.000000
         CHANNELS 3 Yrotation Xrotation Zrotation
         End Site
         {
          OFFSET 0.000000 -17.728500 0.000000
         }
        }
       }
      }
     }
     JOINT LeftCollar
     {
      OFFSET 2.921100 9.558500 0.000000
      CHANNELS 3 Yrotation Xrotation Zrotation
      JOINT LeftShoulder
      {
       OFFSET 13.519700 0.000000 0.000000
       CHANNELS 3 Yrotation Xrotation Zrotation
       JOINT LeftElbow
       {
        OFFSET 0.000000 -29.696600 0.000000
        CHANNELS 3 Yrotation Xrotation Zrotation
        JOINT LeftWrist
        {
         OFFSET 0.000000 -24.004700 0.000000
         CHANNELS 3 Yrotation Xrotation Zrotation
         End Site
         {
          OFFSET 0.000000 -17.728500 0.000000
         }
        }
       }
      }
     }
    }
   }
  }
 }
 JOINT RightHip
 {
  OFFSET -7.771700 -0.012900 -0.001300
  CHANNELS 3 Yrotation Xrotation Zrotation
  JOINT RightKnee
  {
   OFFSET 0.000000 -40.869800 0.001200
   CHANNELS 3 Yrotation Xrotation Zrotation
   JOINT RightAnkle
   {
    OFFSET 0.000000 -39.717900 0.002100
    CHANNELS 3 Yrotation Xrotation Zrotation
    JOINT RightToe
    {
     OFFSET 0.000000 -4.965400 11.033500
     CHANNELS 3 Yrotation Xrotation Zrotation
     End Site
     {
      OFFSET 0.000000 -1.423100 5.872300
     }
    }
   }
  }
 }
 JOINT LeftHip
 {
  OFFSET 7.771700 -0.012900 -0.001300
  CHANNELS 3 Yrotation Xrotation Zrotation
  JOINT LeftKnee
  {
   OFFSET 0.000000 -40.869800 0.001200
   CHANNELS 3 Yrotation Xrotation Zrotation
   JOINT LeftAnkle
   {
    OFFSET 0.000000 -39.717900 0.002100
    CHANNELS 3 Yrotation Xrotation Zrotation
    JOINT LeftToe
    {
     OFFSET 0.000000 -4.965400 11.033500
     CHANNELS 3 Yrotation Xrotation Zrotation
     End Site
     {
      OFFSET 0.000000 -1.423100 5.872300
     }
    }
   }
  }
 }
}
MOTION
Frames: 16
Frame Time: 0.008333
-29.370692 50.646071 26.292566 161.450546 -6.930885 -1.256033 1.983674 6.337703 0.301629 0.078696 0.254075 -0.012677 0.135756 0.442604 -0.024225 1.876585 6.084607 -0.205453 1.062999 19.140196 0.528125 1.779818 -0.251090 0.634064 2.781622 3.962785 0.263828 5.729150 -13.055453 -21.338606 49.592918 -50.126101 -11.012793 -0.972079 -12.061489 -43.806683 -4.214704 0.266853 1.499217 -2.135300 -4.147810 17.749782 -72.896596 -60.523164 38.125974 -4.580282 -4.631072 33.343242 -6.560602 -73.344097 5.159297 -131.685072 82.492271 -131.075878 -3.808940 -16.084338 0.621557 -0.186858 0.518751 -0.094010 -7.965775 -76.770011 30.161742 118.060348 79.721071 113.533985 -16.584559 -23.081491 1.531054 -0.181184 -0.701130 -0.079254
-29.369927 50.646436 26.292280 161.448315 -6.933486 -1.257810 1.988135 6.344237 0.306382 0.078777 0.254209 -0.012752 0.136674 0.442715 -0.024609 1.875352 6.084885 -0.206645 1.061182 19.137406 0.525362 1.777487 -0.256246 0.629649 2.787438 3.950693 0.260438 5.726220 -13.040658 -21.332486 49.604391 -50.128567 -11.013096 -0.974561 -12.059090 -43.827580 -4.223130 0.260335 1.501203 -2.144505 -4.147867 17.760288 -72.862942 -60.518555 38.089415 -4.591728 -4.626812 33.335706 -6.569640 -73.341064 5.167635 -131.695734 82.491561 -131.083256 -3.808114 -16.085332 0.618370 -0.187659 0.516070 -0.093638 -7.945354 -76.770349 30.144271 118.066530 79.720799 113.543321 -16.548081 -23.089436 1.527598 -0.175301 -0.695979 -0.080959
-29.369878 50.646841 26.291188 161.444250 -6.938880 -1.253503 1.995253 6.354519 0.304338 0.078860 0.254347 -0.012797 0.138620 0.447406 -0.022263 1.869869 6.076927 -0.210472 1.060728 19.136318 0.524414 1.777010 -0.258233 0.628128 2.792802 3.948487 0.254186 5.721921 -13.036774 -21.321089 49.619236 -50.127369 -11.015290 -0.976574 -12.056203 -43.839550 -4.228713 0.257139 1.501471 -2.159213 -4.145723 17.773556 -72.828618 -60.520954 38.064820 -4.591660 -4.623808 33.334330 -6.562257 -73.335575 5.158527 -131.711934 82.491151 -131.098399 -3.803979 -16.088819 0.615951 -0.190271 0.514186 -0.092479 -7.914816 -76.766648 30.117044 118.095727 79.723526 113.573174 -16.519265 -23.095763 1.525523 -0.155304 -0.696661 -0.079825
-29.370276 50.647228 26.290184 161.440030 -6.942435 -1.246551 2.005795 6.364641 0.298985 0.079032 0.254597 -0.012851 0.134176 0.443709 -0.022337 1.871530 6.078757 -0.210245 1.056680 19.132209 0.520420 1.770651 -0.265594 0.621833 2.797193 3.942234 0.251068 5.718250 -13.028230 -21.321641 49.618087 -50.133088 -11.015290 -0.984584 -12.055653 -43.849542 -4.238821 0.253772 1.503162 -2.167699 -4.143895 17.785486 -72.807614 -60.524688 38.049462 -4.586712 -4.622232 33.339780 -6.551230 -73.331253 5.148334 -131.710385 82.491709 -131.100046 -3.802910 -16.093915 0.615251 -0.190372 0.517231 -0.092340 -7.872466 -76.764444 30.079383 118.123301 79.728517 113.603684 -16.514018 -23.105297 1.527624 -0.128571 -0.695608 -0.077140
-29.369185 50.647596 26.290549 161.433359 -6.940674 -1.249967 2.017343 6.366260 0.303712 0.085094 0.258529 -0.013415 0.127886 0.439833 -0.021975 1.877996 6.085837 -0.211947 1.056933 19.126530 0.509089 1.744025 -0.299261 0.611975 2.801389 3.933678 0.247883 5.711381 -13.023359 -21.322088 49.609823 -50.139721 -11.012436 -0.986593 -12.055101 -43.855286 -4.254795 0.246281 1.509171 -2.165033 -4.146195 17.795740 -72.779185 -60.518743 37.998233 -4.582445 -4.629146 33.370016 -6.568138 -73.332700 5.170700 -131.724555 82.495461 -131.114247 -3.802445 -16.088402 0.613450 -0.192685 0.512226 -0.093144 -7.872043 -76.765579 30.083310 118.121108 79.727145 113.603142 -16.478241 -23.121302 1.523720 -0.156019 -0.684754 -0.083999
-29.369154 50.648063 26.289532 161.434733 -6.944177 -1.245098 2.020380 6.374075 0.299420 0.091748 0.261393 -0.014108 0.140152 0.449156 -0.022799 1.870303 6.081926 -0.211188 1.050459 19.114105 0.502525 1.731743 -0.308732 0.616473 2.788135 3.924298 0.245550 5.710175 -13.022796 -21.318915 49.611236 -50.143809 -11.007849 -0.990503 -12.057552 -43.865227 -4.272058 0.235271 1.513104 -2.175232 -4.133849 17.818803 -72.760239 -60.540067 37.988000 -4.582415 -4.611321 33.369224 -6.551899 -73.329311 5.150521 -131.737846 82.492934 -131.122669 -3.804816 -16.092636 0.606082 -0.185519 0.510640 -0.087481 -7.849657 -76.762756 30.062261 118.136010 79.732109 113.619441 -16.489281 -23.122516 1.526889 -0.185663 -0.686450 -0.087643
-29.369931 50.648406 26.289684 161.438210 -6.938954 -1.237248 2.029286 6.375075 0.290307 0.088825 0.261829 -0.011122 0.138073 0.448089 -0.023519 1.901635 6.097523 -0.219231 1.022088 19.091645 0.508132 1.720707 -0.318026 0.618514 2.750534 3.904852 0.254371 5.707102 -13.013198 -21.322533 49.605679 -50.151113 -10.997919 -0.988097 -12.061494 -43.871472 -4.314295 0.221908 1.536069 -2.177255 -4.135011 17.819721 -72.746914 -60.546301 37.973759 -4.584633 -4.605487 33.376584 -6.523009 -73.333600 5.113623 -131.751620 82.496503 -131.131191 -3.802594 -16.098939 0.602895 -0.185840 0.515163 -0.087809 -7.822637 -76.766689 30.036150 118.143561 79.741665 113.623268 -16.501698 -23.120772 1.536202 -0.195720 -0.690587 -0.090778
-29.369999 50.648774 26.289971 161.437391 -6.933732 -1.232042 2.045178 6.379604 0.290056 0.077957 0.255292 -0.013497 0.143652 0.450809 -0.023292 1.907113 6.100465 -0.223332 1.010045 19.082105 0.510613 1.710296 -0.369950 0.591385 2.737375 3.897532 0.255992 5.702503 -13.012755 -21.321300 49.613729 -50.153458 -10.991548 -0.995809 -12.063365 -43.879089 -4.342059 0.226605 1.558623 -2.169896 -4.144893 17.812571 -72.729572 -60.544876 37.950028 -4.585493 -4.605825 33.388360 -6.517733 -73.338209 5.102050 -131.786462 82.502582 -131.164229 -3.799601 -16.099095 0.600801 -0.188881 0.514398 -0.090619 -7.807151 -76.770841 30.023307 118.142891 79.745541 113.614456 -16.483360 -23.115841 1.540225 -0.196684 -0.698429 -0.092205
-29.370278 50.649043 26.291023 161.442620 -6.922442 -1.226671 2.052335 6.373399 0.286138 0.070060 0.253506 -0.013627 0.152607 0.453409 -0.023842 1.910582 6.100218 -0.227464 1.000850 19.074308 0.508938 1.700885 -0.391284 0.589533 2.734142 3.900078 0.258491 5.685193 -13.019580 -21.319161 49.620548 -50.158559 -10.983414 -1.001382 -12.066936 -43.893904 -4.366265 0.227142 1.573159 -2.167637 -4.147288 17.813760 -72.732582 -60.537482 37.926863 -4.578420 -4.605800 33.414485 -6.507668 -73.348882 5.084179 -131.794863 82.505573 -131.170704 -3.798339 -16.099496 0.601583 -0.187438 0.515398 -0.090419 -7.796121 -76.782228 30.008417 118.096192 79.739371 113.565157 -16.494449 -23.101785 1.543445 -0.200926 -0.706955 -0.094200
-29.369656 50.649340 26.292344 161.448440 -6.909478 -1.225978 2.051825 6.361981 0.284755 0.073864 0.254725 -0.013107 0.155582 0.453946 -0.025290 1.914111 6.098695 -0.230302 0.995011 19.063871 0.506297 1.692001 -0.391317 0.597009 2.719166 3.901081 0.264109 5.678432 -13.019639 -21.319526 49.623285 -50.164622 -10.979551 -1.009628 -12.071514 -43.897906 -4.386285 0.229493 1.582790 -2.164983 -4.149031 17.814646 -72.735773 -60.536921 37.919769 -4.580596 -4.601653 33.419685 -6.512971 -73.359638 5.082728 -131.787785 82.507989 -131.161170 -3.796017 -16.101289 0.600073 -0.190759 0.517673 -0.089915 -7.822011 -76.794643 30.034572 118.051062 79.730536 113.510731 -16.510307 -23.082358 1.547923 -0.171661 -0.715409 -0.088605
-29.367187 50.649865 26.293175 161.452713 -6.900182 -1.233979 2.055098 6.354058 0.292101 0.081175 0.256278 -0.013803 0.155116 0.453690 -0.024653 1.906337 6.096027 -0.231175 1.002262 19.051609 0.497506 1.678373 -0.415627 0.596296 2.712971 3.904506 0.267179 5.680965 -13.016983 -21.323310 49.614847 -50.172959 -10.976562 -1.012177 -12.079031 -43.882851 -4.398620 0.234394 1.587910 -2.158896 -4.151528 17.816484 -72.741354 -60.536165 37.904772 -4.580434 -4.600056 33.437784 -6.546831 -73.366304 5.113402 -131.783210 82.507870 -131.154581 -3.792807 -16.097842 0.602930 -0.194166 0.513596 -0.094220 -7.873070 -76.802362 30.088648 118.020708 79.723219 113.470853 -16.493451 -23.068743 1.547731 -0.185125 -0.719071 -0.088835
-29.368616 50.650312 26.293864 161.460631 -6.880518 -1.219864 2.054697 6.339638 0.276789 0.081398 0.255790 -0.013945 0.160099 0.451132 -0.024924 1.910157 6.091718 -0.235113 0.996042 19.039446 0.494622 1.667443 -0.470478 0.580395 2.698244 3.911554 0.276949 5.657028 -13.015063 -21.324058 49.633495 -50.187425 -10.977313 -1.011066 -12.082829 -43.879353 -4.428713 0.253983 1.605935 -2.153877 -4.161188 17.816546 -72.733542 -60.533836 37.894489 -4.579518 -4.608108 33.447363 -6.517093 -73.387092 5.072947 -131.804817 82.509914 -131.177405 -3.795633 -16.101291 0.604600 -0.194843 0.516229 -0.095385 -7.829409 -76.822883 30.042117 118.001755 79.725606 113.449549 -16.523070 -23.050143 1.559751 -0.187600 -0.727377 -0.091251
-29.368687 50.651127 26.294110 161.461624 -6.861837 -1.212084 2.072349 6.325469 0.271888 0.081158 0.254823 -0.014226 0.151683 0.448711 -0.028679 1.918295 6.080670 -0.236574 0.996459 19.002984 0.479879 1.649840 -0.468342 0.592329 2.683645 3.925937 0.286493 5.641684 -13.016479 -21.326017 49.635143 -50.196061 -10.969847 -1.005132 -12.086453 -43.873702 -4.451345 0.268960 1.612832 -2.153555 -4.160493 17.827409 -72.753767 -60.535790 37.898543 -4.578659 -4.607135 33.453748 -6.504009 -73.407682 5.057470 -131.819429 82.509986 -131.192978 -3.793918 -16.097430 0.604628 -0.193822 0.512328 -0.094647 -7.798237 -76.840035 30.013478 117.973704 79.726631 113.419775 -16.524611 -23.044022 1.558280 -0.186121 -0.725271 -0.087546
-29.367798 50.652203 26.295645 161.462195 -6.832898 -1.212903 2.080632 6.299051 0.268582 0.087125 0.258621 -0.016091 0.140233 0.442962 -0.024377 1.930897 6.065078 -0.244788 0.990788 18.993597 0.482558 1.643006 -0.455384 0.600901 2.655867 3.945558 0.304765 5.640402 -13.018598 -21.329538 49.641894 -50.209405 -10.960825 -0.993934 -12.083691 -43.874017 -4.470060 0.289605 1.623359 -2.162055 -4.161546 17.841689 -72.748970 -60.534520 37.891858 -4.583085 -4.594674 33.452393 -6.530450 -73.435228 5.081931 -131.837269 82.514356 -131.212009 -3.790882 -16.094141 0.603107 -0.192013 0.508816 -0.093990 -7.812972 -76.867904 30.029291 117.947311 79.729727 113.388943 -16.498079 -23.037356 1.552080 -0.179199 -0.722337 -0.083550
-29.366873 50.653859 26.295638 161.458603 -6.808114 -1.211656 2.094876 6.285523 0.265486 0.083418 0.252613 -0.014468 0.135480 0.439073 -0.024393 1.960892 6.036791 -0.246321 0.964074 19.008330 0.484879 1.632931 -0.484707 0.589122 2.614203 3.974153 0.317489 5.631602 -13.018110 -21.326726 49.666532 -50.214400 -10.972060 -0.990056 -12.083835 -43.867548 -4.510581 0.323513 1.628538 -2.169600 -4.162495 17.860960 -72.736504 -60.538548 37.881099 -4.572486 -4.598860 33.462787 -6.547813 -73.457754 5.103773 -131.827507 82.516509 -131.205800 -3.790531 -16.093158 0.604419 -0.193564 0.507167 -0.095822 -7.813161 -76.889799 30.032786 117.948904 79.734565 113.383577 -16.458254 -23.038645 1.548922 -0.179489 -0.717165 -0.083266
-29.363770 50.656416 26.292431 161.452433 -6.801456 -1.217805 2.114384 6.289634 0.271721 0.082116 0.250260 -0.014403 0.131564 0.432280 -0.022994 1.976052 6.027735 -0.248869 0.948122 19.002889 0.485787 1.617163 -0.559057 0.554192 2.584615 3.984036 0.328277 5.614570 -13.018445 -21.318433 49.702576 -50.218843 -10.991837 -0.989175 -12.079264 -43.856059 -4.532968 0.360267 1.634636 -2.186988 -4.182472 17.881737 -72.730054 -60.545889 37.882332 -4.562811 -4.593506 33.465289 -6.609111 -73.453667 5.173052 -131.773798 82.517216 -131.160746 -3.796535 -16.102145 0.603818 -0.185567 0.511738 -0.094919 -7.816130 -76.890759 30.051713 117.964079 79.741070 113.398993 -16.460886 -23.052468 1.549188 -0.179854 -0.705384 -0.080100
